<?xml version="1.0" encoding="UTF-8" standalone="no"?>
<!-- Created with Inkscape (http://www.inkscape.org/) -->
<svg
   xmlns:dc="http://purl.org/dc/elements/1.1/"
   xmlns:cc="http://creativecommons.org/ns#"
   xmlns:rdf="http://www.w3.org/1999/02/22-rdf-syntax-ns#"
   xmlns:svg="http://www.w3.org/2000/svg"
   xmlns="http://www.w3.org/2000/svg"
   xmlns:sodipodi="http://sodipodi.sourceforge.net/DTD/sodipodi-0.dtd"
   xmlns:inkscape="http://www.inkscape.org/namespaces/inkscape"
   width="60"
   height="60"
   id="svg2"
   sodipodi:version="0.32"
   inkscape:version="0.46"
   version="1.0"
   sodipodi:docname="Character Mu4 Trad.svg"
   inkscape:output_extension="org.inkscape.output.svg.inkscape"
   style="display:inline">
  <defs
     id="defs4">
    <inkscape:perspective
       sodipodi:type="inkscape:persp3d"
       inkscape:vp_x="0 : 526.18109 : 1"
       inkscape:vp_y="0 : 1000 : 0"
       inkscape:vp_z="744.09448 : 526.18109 : 1"
       inkscape:persp3d-origin="372.04724 : 350.78739 : 1"
       id="perspective10" />
    <inkscape:perspective
       id="perspective2447"
       inkscape:persp3d-origin="372.04724 : 350.78739 : 1"
       inkscape:vp_z="744.09448 : 526.18109 : 1"
       inkscape:vp_y="0 : 1000 : 0"
       inkscape:vp_x="0 : 526.18109 : 1"
       sodipodi:type="inkscape:persp3d" />
  </defs>
  <sodipodi:namedview
     id="base"
     pagecolor="#ffffff"
     bordercolor="#666666"
     borderopacity="1.0"
     gridtolerance="10000"
     guidetolerance="10"
     objecttolerance="10"
     inkscape:pageopacity="0.0"
     inkscape:pageshadow="2"
     inkscape:zoom="7.9195959"
     inkscape:cx="31.163647"
     inkscape:cy="32.732339"
     inkscape:document-units="px"
     inkscape:current-layer="layer2"
     showgrid="false"
     inkscape:window-width="1440"
     inkscape:window-height="838"
     inkscape:window-x="-8"
     inkscape:window-y="-8" />
  <metadata
     id="metadata7">
    <rdf:RDF>
      <cc:Work
         rdf:about="">
        <dc:format>image/svg+xml</dc:format>
        <dc:type
           rdf:resource="http://purl.org/dc/dcmitype/StillImage" />
      </cc:Work>
    </rdf:RDF>
  </metadata>
  <g
     inkscape:groupmode="layer"
     id="layer2"
     inkscape:label="Main"
     style="display:inline">
    <path
       style="fill:#000000;fill-opacity:1;fill-rule:evenodd;stroke:#000000;stroke-width:1px;stroke-linecap:butt;stroke-linejoin:miter;stroke-opacity:1"
       d="M 28.75,5.4375 C 27.822752,5.3391173 26.807093,6.1587084 26.25,6.1875 C 28.085319,10.579566 26.925288,16.207287 27.09375,21.28125 C 23.622174,22.173421 22.161072,23.053182 10.46875,23 C 12.000748,28.60363 20.964408,24.317829 27.03125,23.875 C 24.902655,29.811263 22.306383,35.927833 4.03125,48.125 C 5.0788653,48.078862 13.577569,49.214972 26.65625,31.59375 C 26.4436,38.026513 27.382413,45.360421 25.4375,50.4375 C 24.635626,56.87414 30.300965,60.371777 30.34375,52.84375 L 30.53125,28.5625 C 35.140518,34.700681 38.908786,42.100363 44.71875,46.4375 C 45.824804,47.327276 50.272968,47.086867 58.34375,44.875 C 43.803782,40.544195 37.171213,32.181238 29.901808,23.811231 C 30.98207,23.500327 39.489597,23.358532 46.689721,22.408471 C 47.101715,17.241692 36.578827,20.921236 30.25,21.09375 C 31.629584,8.2505129 30.295414,5.6014711 28.75,5.4375 z"
       id="path2454"
       sodipodi:nodetypes="cccccccccccccccc" />
  </g>
</svg>
